<?xml version="1.0" encoding="UTF-8"?>
<svg xmlns="http://www.w3.org/2000/svg" version="1.1" xmlns:xlink="http://www.w3.org/1999/xlink" viewBox="0 0 595.3 841.9">
  <!-- Generator: Adobe Illustrator 29.3.1, SVG Export Plug-In . SVG Version: 2.1.0 Build 151)  -->
  <defs>
    <style>
      .st0 {
        fill: #dbba35;
      }

      .st1 {
        fill: #b5b4aa;
      }

      .st2 {
        display: none;
      }

      .st3 {
        fill: none;
        stroke: #2a3340;
        stroke-miterlimit: 10;
        stroke-width: 11.4px;
      }

      .st4 {
        fill: #2a3340;
      }

      .st5 {
        fill: #5f6e74;
      }
    </style>
  </defs>
  <g id="Layer_1" class="st2">
    <image width="1024" height="1024" transform="translate(48.2 117.9) scale(.5)" xlink:href="C:\Users\jp\Downloads\ChatGPT Image Aug 3, 2025, 10_44_08 PM.png"/>
  </g>
  <g id="Layer_2">
    <g id="Layer_3">
      <rect class="st1" x="160.9" y="301.2" width="250.7" height="2.9" rx="1.5" ry="1.5"/>
      <path class="st0" d="M165.9,262.3c19,0,17.5-45.8,24.9-45.8,7.4,0,4.3,37.9,22.7,38.2,18.4.3,33.6-91.2,50-91.2s30.8,95.3,63.1,95.6c32.4.4,29.8-31.6,43.6-31.8s16.9,35,38.3,35.1c.3,1.2.3.8.3,1.2v2.9l-245.6-.9"/>
      <rect class="st0" x="161.7" y="262.3" width="249.9" height="6.7" rx="3.4" ry="3.4"/>
      <rect class="st1" x="205.7" y="294.5" width="122" height="17.9" rx="5" ry="5"/>
      <rect class="st5" x="252.2" y="287.5" width="31.3" height="31.2" rx="2.3" ry="2.3"/>
      <rect class="st5" x="224.6" y="287.5" width="13.9" height="31.2" rx="1.9" ry="1.9"/>
      <rect class="st5" x="300.3" y="288.2" width="5.6" height="31.2" rx="1.4" ry="1.4"/>
      <rect class="st0" x="202.3" y="265.7" width="128.7" height="16.1" rx="3.7" ry="3.7"/>
      <g>
        <circle class="st3" cx="266.7" cy="287.5" r="61"/>
        <path class="st4" d="M336,328.9h49.8c7,0,12.6,5.6,12.6,12.6h0c0,6.4-5.2,11.6-11.6,11.6h-50.1c-2,0-3.6-1.6-3.6-3.6v-17.6c0-1.6,1.3-2.9,2.9-2.9Z" transform="translate(203.9 -132.1) rotate(28.1)"/>
        <rect class="st4" x="321.6" y="315.6" width="23.7" height="15" rx="2" ry="2" transform="translate(191.6 -119) rotate(28.1)"/>
      </g>
      <g>
        <path class="st0" d="M183.4,378.8c2.2,0,4.2.6,6,1.7,1.7,1.1,3.1,2.6,4.2,4.6,1,1.9,1.5,4.2,1.5,6.7s-.5,4.8-1.5,6.8c-1,2-2.4,3.5-4.1,4.6s-3.7,1.7-5.9,1.7-2.4-.2-3.5-.6c-1.1-.4-2-.9-2.9-1.5-.8-.6-1.5-1.3-2-2-.5-.7-.9-1.3-1-1.9l1.3-.7v13.4c0,.7-.2,1.3-.7,1.8-.5.5-1,.7-1.7.7s-1.3-.2-1.8-.7c-.5-.5-.7-1-.7-1.8v-30c0-.7.2-1.2.7-1.7s1-.7,1.8-.7,1.2.2,1.7.7c.5.5.7,1.1.7,1.7v3.3l-.8-.4c0-.6.4-1.2.9-1.9.5-.7,1.2-1.3,1.9-1.8.8-.6,1.7-1,2.7-1.4,1-.4,2.1-.5,3.1-.5ZM182.9,383.2c-1.5,0-2.9.4-4,1.1-1.1.8-2,1.8-2.7,3-.6,1.3-1,2.8-1,4.4s.3,3.1,1,4.4c.6,1.3,1.5,2.4,2.7,3.1,1.1.8,2.5,1.1,4,1.1s2.8-.4,3.9-1.1c1.1-.8,2-1.8,2.6-3.1.6-1.3,1-2.8,1-4.4s-.3-3.1-1-4.4c-.6-1.3-1.5-2.3-2.6-3.1-1.1-.8-2.4-1.1-3.9-1.1Z"/>
        <path class="st0" d="M212.3,405c-2.7,0-5-.6-6.9-1.7-2-1.1-3.5-2.6-4.5-4.6-1.1-1.9-1.6-4.2-1.6-6.6s.6-5.2,1.7-7.2c1.1-2,2.6-3.5,4.4-4.6,1.8-1.1,3.8-1.6,5.8-1.6s3.1.3,4.5.9c1.4.6,2.7,1.5,3.8,2.6s2,2.4,2.6,3.9c.6,1.5,1,3.1,1,4.9,0,.6-.3,1.2-.8,1.6-.5.4-1,.6-1.7.6h-18.7l-1.2-4.1h18l-.9.9v-1.2c0-1.1-.5-2.1-1.2-2.9-.7-.8-1.5-1.5-2.5-2s-2-.7-3.1-.7-1.9.2-2.8.5c-.9.3-1.7.8-2.4,1.5-.7.7-1.2,1.6-1.6,2.7-.4,1.1-.6,2.5-.6,4.1s.4,3.3,1.1,4.6c.7,1.3,1.7,2.3,3,3,1.2.7,2.6,1.1,4.1,1.1s2.2-.1,2.9-.4c.8-.2,1.4-.5,1.9-.9.5-.4,1-.7,1.4-1,.5-.3.9-.4,1.4-.4s1.1.2,1.5.6c.4.4.6.9.6,1.4s-.4,1.3-1.1,1.9c-.9.8-2.1,1.6-3.6,2.2-1.5.6-3.1,1-4.8,1Z"/>
        <path class="st0" d="M249.1,378.9c.7,0,1.3.2,1.7.7.4.5.7,1,.7,1.8v20.7c0,.7-.2,1.3-.7,1.8-.4.5-1,.7-1.7.7s-1.3-.2-1.7-.7c-.4-.5-.7-1-.7-1.8v-3.5l1,.2c0,.5-.2,1.2-.7,1.9-.5.7-1.1,1.4-1.9,2-.8.6-1.7,1.2-2.8,1.6-1.1.4-2.3.6-3.5.6-2.2,0-4.2-.6-6-1.7-1.8-1.1-3.2-2.7-4.2-4.7-1-2-1.5-4.2-1.5-6.8s.5-4.9,1.5-6.8c1-2,2.4-3.5,4.2-4.6,1.7-1.1,3.7-1.7,5.8-1.7s2.6.2,3.8.7c1.2.4,2.2,1,3,1.7.9.7,1.5,1.4,2,2.2.5.8.7,1.5.7,2.2h-1.5c0,.1,0-4.2,0-4.2,0-.7.2-1.2.7-1.7.4-.5,1-.7,1.7-.7ZM239.3,400.6c1.5,0,2.8-.4,4-1.2,1.2-.8,2-1.8,2.7-3.1.6-1.3,1-2.8,1-4.4s-.3-3.1-1-4.4c-.6-1.3-1.5-2.4-2.7-3.1-1.2-.8-2.5-1.1-4-1.1s-2.8.4-3.9,1.1c-1.1.8-2,1.8-2.7,3.1s-1,2.8-1,4.5.3,3.1,1,4.4c.7,1.3,1.6,2.4,2.7,3.1,1.1.8,2.4,1.2,3.9,1.2Z"/>
        <path class="st0" d="M261,404.5c-.7,0-1.2-.2-1.7-.7-.5-.5-.7-1-.7-1.8v-30.6c0-.7.2-1.3.7-1.8s1-.7,1.7-.7,1.3.2,1.7.7c.4.5.7,1,.7,1.8v30.6c0,.7-.2,1.3-.7,1.8-.4.5-1,.7-1.7.7ZM276.6,379.2c.6,0,1.2.3,1.6.8.4.5.7,1,.7,1.5s-.3,1.2-.9,1.8l-15,13.4-.2-5.5,12.1-11.2c.5-.5,1.1-.8,1.7-.8ZM277.2,404.5c-.7,0-1.3-.3-1.8-.8l-9.6-10.1,3.6-3.4,9.4,10.1c.5.5.8,1.2.8,1.8s-.3,1.3-.8,1.7c-.6.4-1.1.6-1.6.6Z"/>
        <path class="st5" d="M295.9,405c-2.3,0-4.4-.3-6.1-.9-1.8-.6-3.5-1.7-5.1-3.1-.4-.3-.6-.6-.8-1-.2-.4-.3-.7-.3-1.1,0-.6.2-1.2.7-1.6.4-.5,1-.7,1.7-.7s1,.2,1.4.5c1.2,1.1,2.5,2,3.8,2.5,1.3.6,2.9.9,4.7.9s2.5-.2,3.5-.6c1.1-.4,1.9-1,2.6-1.7.6-.7,1-1.5,1-2.4,0-1.2-.4-2.1-1-2.8-.6-.7-1.6-1.4-2.8-1.9-1.2-.5-2.7-.9-4.4-1.2-1.6-.3-3-.7-4.3-1.2-1.3-.5-2.4-1.2-3.2-1.9-.9-.8-1.6-1.7-2-2.8-.5-1.1-.7-2.3-.7-3.7s.5-3.6,1.5-5.1c1-1.4,2.4-2.5,4.2-3.3,1.8-.8,3.7-1.2,6-1.2s3.9.3,5.7.9c1.8.6,3.2,1.5,4.3,2.5.8.7,1.2,1.4,1.2,2.2s-.2,1.2-.7,1.6-1,.7-1.6.7-.8-.1-1.2-.4c-.5-.5-1.2-1-2.1-1.5-.9-.4-1.8-.8-2.8-1.1s-1.9-.4-2.8-.4c-1.4,0-2.7.2-3.7.6-1,.4-1.8.9-2.4,1.6-.5.7-.8,1.5-.8,2.5s.3,2,.9,2.7c.6.7,1.5,1.2,2.6,1.7,1.1.4,2.4.8,3.8,1.2,1.8.4,3.3.8,4.7,1.3,1.4.5,2.6,1.1,3.5,1.8,1,.8,1.7,1.7,2.2,2.8.5,1.1.8,2.5.8,4.2s-.5,3.6-1.6,5c-1.1,1.4-2.5,2.6-4.3,3.4-1.8.8-3.8,1.2-5.9,1.2Z"/>
        <path class="st5" d="M324.3,378.7c1.7,0,3.3.2,4.6.6,1.3.4,2.4.9,3.1,1.5.8.7,1.1,1.4,1.1,2.3s-.2,1-.5,1.5c-.3.5-.8.7-1.4.7s-.9,0-1.2-.2c-.3-.1-.6-.3-.8-.6-.2-.2-.6-.5-.9-.6-.4-.2-.9-.4-1.6-.5-.7-.1-1.3-.2-1.8-.2-1.7,0-3.2.4-4.4,1.2-1.2.8-2.2,1.8-2.9,3.1-.7,1.3-1,2.8-1,4.4s.3,3.2,1,4.5c.7,1.3,1.6,2.4,2.8,3.1s2.6,1.2,4.2,1.2,1.7,0,2.3-.2,1.1-.3,1.6-.6c.5-.3.9-.6,1.3-.9.3-.3.8-.5,1.4-.5s1.2.2,1.6.6c.4.4.6,1,.6,1.6s-.4,1.4-1.3,2c-.8.7-2,1.2-3.4,1.6-1.4.4-3,.6-4.7.6-2.5,0-4.6-.6-6.5-1.7-1.8-1.2-3.3-2.7-4.3-4.7-1-2-1.5-4.2-1.5-6.7s.5-4.8,1.6-6.7c1.1-2,2.5-3.5,4.4-4.7,1.9-1.2,4-1.7,6.5-1.7Z"/>
        <path class="st5" d="M362.2,391.9c0,2.6-.6,4.8-1.7,6.8-1.1,2-2.6,3.5-4.6,4.6-1.9,1.1-4.1,1.7-6.5,1.7s-4.6-.6-6.5-1.7c-1.9-1.1-3.4-2.7-4.6-4.6-1.1-2-1.7-4.2-1.7-6.8s.6-4.9,1.7-6.8c1.1-2,2.7-3.5,4.6-4.7,1.9-1.1,4.1-1.7,6.5-1.7s4.6.6,6.5,1.7c1.9,1.1,3.4,2.7,4.6,4.7,1.1,2,1.7,4.2,1.7,6.8ZM357.4,391.9c0-1.8-.4-3.3-1.1-4.6-.7-1.3-1.7-2.3-2.9-3-1.2-.7-2.5-1.1-4-1.1s-2.8.4-4,1.1c-1.2.7-2.2,1.8-2.9,3-.7,1.3-1.1,2.8-1.1,4.6s.4,3.2,1.1,4.5c.7,1.3,1.7,2.3,2.9,3.1,1.2.7,2.6,1.1,4,1.1s2.8-.4,4-1.1c1.2-.7,2.2-1.8,2.9-3.1.7-1.3,1.1-2.8,1.1-4.5Z"/>
        <path class="st5" d="M386.4,379.3c.7,0,1.2.2,1.7.7s.7,1,.7,1.8v12.6c0,3.3-.9,5.9-2.8,7.8-1.9,1.9-4.5,2.8-7.9,2.8s-6-.9-7.8-2.8c-1.8-1.9-2.8-4.5-2.8-7.8v-12.6c0-.7.2-1.3.7-1.8s1-.7,1.8-.7,1.2.2,1.7.7.7,1,.7,1.8v12.6c0,2.1.5,3.6,1.5,4.7,1,1,2.4,1.5,4.3,1.5s3.4-.5,4.3-1.5c1-1,1.5-2.6,1.5-4.7v-12.6c0-.7.2-1.3.7-1.8s1-.7,1.8-.7Z"/>
        <path class="st5" d="M395.2,379.5h11.3c.6,0,1.2.2,1.6.6s.6,1,.6,1.6-.2,1.2-.6,1.6c-.4.4-1,.6-1.6.6h-11.3c-.6,0-1.2-.2-1.6-.6s-.6-1-.6-1.6.2-1.2.6-1.6c.4-.4,1-.6,1.6-.6ZM400.2,373.3c.7,0,1.3.2,1.7.7.4.5.7,1,.7,1.8v22.3c0,.6,0,1,.3,1.4.2.4.5.6.8.7.3.1.7.2,1,.2s.7,0,.9-.2c.3-.1.6-.2,1-.2s.7.2,1.1.5c.3.4.5.8.5,1.4s-.4,1.4-1.2,1.9c-.8.5-1.7.7-2.7.7s-1.2,0-1.9-.1c-.7,0-1.4-.3-2.1-.7-.7-.4-1.3-1-1.7-1.8-.5-.8-.7-2-.7-3.6v-22.5c0-.7.2-1.3.7-1.8.5-.5,1.1-.7,1.7-.7Z"/>
      </g>
    </g>
  </g>
</svg>