<?xml version="1.0" encoding="UTF-8"?>
<svg id="Layer_2" data-name="Layer 2" xmlns="http://www.w3.org/2000/svg" viewBox="0 0 263.91 281.88">
  <defs>
    <style>
      .cls-1 {
        fill: #dbba35;
      }

      .cls-2 {
        fill: #b5b4aa;
      }

      .cls-3 {
        fill: none;
        stroke: #2a3340;
        stroke-miterlimit: 10;
        stroke-width: 11.38px;
      }

      .cls-4 {
        fill: #2a3340;
      }

      .cls-5 {
        fill: #5f6e74;
      }
    </style>
  </defs>
  <g id="Layer_3" data-name="Layer 3">
    <rect class="cls-2" x="0" y="137.73" width="250.75" height="2.91" rx="1.45" ry="1.45"/>
    <path class="cls-1" d="M5.01,98.83c18.99,0,17.48-45.81,24.88-45.82,7.4-.01,4.31,37.88,22.75,38.21C71.08,91.55,86.21,0,102.66,0s30.75,95.26,63.11,95.63c32.36.38,29.76-31.57,43.56-31.8s16.9,35.01,38.26,35.09c.28,1.24.28.81.28,1.24v2.88l-245.6-.88"/>
    <rect class="cls-1" x=".81" y="98.83" width="249.94" height="6.74" rx="3.37" ry="3.37"/>
    <rect class="cls-2" x="44.81" y="130.99" width="121.98" height="17.9" rx="4.99" ry="4.99"/>
    <rect class="cls-5" x="91.29" y="123.96" width="31.33" height="31.24" rx="2.26" ry="2.26"/>
    <rect class="cls-5" x="63.68" y="123.96" width="13.9" height="31.24" rx="1.93" ry="1.93"/>
    <rect class="cls-5" x="139.33" y="124.67" width="5.62" height="31.24" rx="1.42" ry="1.42"/>
    <rect class="cls-1" x="41.39" y="102.2" width="128.71" height="16.07" rx="3.75" ry="3.75"/>
    <g>
      <circle class="cls-3" cx="105.8" cy="123.96" r="60.99"/>
      <path class="cls-4" d="M175.07,165.41h49.81c6.96,0,12.6,5.65,12.6,12.6h0c0,6.4-5.19,11.59-11.59,11.59h-50.09c-2.01,0-3.64-1.63-3.64-3.64v-17.64c0-1.6,1.3-2.91,2.91-2.91Z" transform="translate(107.82 -75.58) rotate(28.12)"/>
      <rect class="cls-4" x="160.7" y="152.09" width="23.74" height="15.01" rx="2.02" ry="2.02" transform="translate(95.57 -62.49) rotate(28.12)"/>
    </g>
    <g>
      <path class="cls-1" d="M22.47,215.31c2.24,0,4.23.56,5.98,1.68,1.74,1.12,3.13,2.65,4.15,4.58,1.02,1.94,1.54,4.18,1.54,6.74s-.51,4.82-1.54,6.79c-1.02,1.97-2.4,3.51-4.13,4.63s-3.68,1.68-5.86,1.68c-1.22,0-2.37-.19-3.46-.58-1.09-.38-2.05-.89-2.88-1.51-.83-.62-1.51-1.29-2.04-1.99-.53-.7-.86-1.34-.98-1.92l1.3-.67v13.39c0,.7-.23,1.29-.7,1.75-.46.46-1.03.7-1.7.7s-1.29-.23-1.75-.7c-.46-.46-.7-1.05-.7-1.75v-30.05c0-.67.23-1.25.7-1.73s1.05-.72,1.75-.72,1.24.24,1.7.72c.46.48.7,1.06.7,1.73v3.31l-.77-.43c.1-.61.4-1.24.91-1.9.51-.66,1.16-1.27,1.94-1.85.78-.58,1.68-1.04,2.69-1.39,1.01-.35,2.06-.53,3.14-.53ZM21.94,219.72c-1.54,0-2.87.38-4.01,1.13-1.14.75-2.02,1.77-2.66,3.05-.64,1.28-.96,2.75-.96,4.42s.32,3.11.96,4.44c.64,1.33,1.53,2.37,2.66,3.12,1.14.75,2.47,1.13,4.01,1.13s2.82-.38,3.94-1.13c1.12-.75,2-1.79,2.64-3.12.64-1.33.96-2.81.96-4.44s-.32-3.1-.96-4.39c-.64-1.3-1.52-2.32-2.64-3.07-1.12-.75-2.43-1.13-3.94-1.13Z"/>
      <path class="cls-1" d="M51.32,241.47c-2.66,0-4.96-.55-6.91-1.66-1.95-1.1-3.46-2.62-4.54-4.56-1.07-1.94-1.61-4.15-1.61-6.65,0-2.82.57-5.22,1.7-7.22,1.14-2,2.62-3.54,4.44-4.61,1.82-1.07,3.76-1.61,5.81-1.61,1.57,0,3.06.31,4.46.94,1.41.62,2.66,1.49,3.77,2.59s1.98,2.4,2.62,3.89c.64,1.49.98,3.11,1.01,4.87-.03.64-.29,1.17-.77,1.58-.48.42-1.04.62-1.68.62h-18.67l-1.15-4.08h18.05l-.91.86v-1.2c-.1-1.12-.48-2.1-1.15-2.93-.67-.83-1.5-1.49-2.47-1.97s-2.01-.72-3.1-.72c-.96,0-1.88.15-2.76.46-.88.3-1.66.79-2.35,1.46-.69.67-1.23,1.56-1.63,2.66-.4,1.1-.6,2.47-.6,4.1,0,1.76.37,3.3,1.1,4.61.74,1.31,1.73,2.33,2.98,3.05,1.25.72,2.62,1.08,4.13,1.08,1.18,0,2.15-.12,2.9-.36.75-.24,1.39-.54,1.92-.89.53-.35.98-.69,1.37-1.01.48-.29.94-.43,1.39-.43.61,0,1.1.2,1.49.6.38.4.58.87.58,1.42,0,.7-.35,1.34-1.06,1.92-.86.83-2.06,1.57-3.58,2.21-1.52.64-3.11.96-4.78.96Z"/>
      <path class="cls-1" d="M88.18,215.36c.7,0,1.28.23,1.73.7.45.46.67,1.05.67,1.75v20.74c0,.7-.22,1.29-.67,1.75-.45.46-1.02.7-1.73.7s-1.28-.23-1.73-.7c-.45-.46-.67-1.05-.67-1.75v-3.46l1.01.19c0,.54-.23,1.18-.7,1.9-.46.72-1.1,1.4-1.9,2.04-.8.64-1.74,1.18-2.83,1.61-1.09.43-2.26.65-3.5.65-2.21,0-4.19-.57-5.95-1.7-1.76-1.14-3.15-2.7-4.18-4.68-1.02-1.98-1.54-4.24-1.54-6.77s.51-4.87,1.54-6.84c1.02-1.97,2.41-3.51,4.15-4.63,1.74-1.12,3.67-1.68,5.78-1.68,1.38,0,2.65.22,3.82.67,1.17.45,2.18,1.02,3.05,1.73.86.7,1.54,1.45,2.02,2.23.48.78.72,1.53.72,2.23l-1.49.14v-4.37c0-.67.22-1.25.67-1.73.45-.48,1.02-.72,1.73-.72ZM78.39,237.05c1.5,0,2.83-.38,3.98-1.15,1.15-.77,2.05-1.82,2.69-3.14.64-1.33.96-2.81.96-4.44s-.32-3.11-.96-4.44c-.64-1.33-1.54-2.37-2.69-3.12-1.15-.75-2.48-1.13-3.98-1.13s-2.78.38-3.91,1.13c-1.14.75-2.03,1.78-2.69,3.1s-.98,2.8-.98,4.46.33,3.11.98,4.44c.66,1.33,1.55,2.38,2.69,3.14,1.14.77,2.44,1.15,3.91,1.15Z"/>
      <path class="cls-1" d="M100.09,240.99c-.67,0-1.24-.23-1.7-.7-.46-.46-.7-1.05-.7-1.75v-30.62c0-.7.23-1.29.7-1.75s1.03-.7,1.7-.7,1.28.23,1.73.7c.45.46.67,1.05.67,1.75v30.62c0,.7-.22,1.29-.67,1.75-.45.46-1.02.7-1.73.7ZM115.69,215.64c.64,0,1.18.26,1.63.77.45.51.67,1.02.67,1.54,0,.64-.3,1.23-.91,1.78l-15.02,13.44-.19-5.52,12.1-11.23c.51-.51,1.09-.77,1.73-.77ZM116.31,240.94c-.67,0-1.26-.27-1.78-.82l-9.55-10.13,3.65-3.36,9.36,10.13c.51.54.77,1.15.77,1.82,0,.71-.28,1.27-.84,1.7-.56.43-1.1.65-1.61.65Z"/>
      <path class="cls-5" d="M134.93,241.47c-2.3,0-4.35-.31-6.14-.94-1.79-.62-3.5-1.67-5.14-3.14-.35-.29-.62-.62-.79-.98-.18-.37-.26-.74-.26-1.13,0-.61.22-1.15.67-1.63.45-.48,1.01-.72,1.68-.72.51,0,.99.18,1.44.53,1.22,1.12,2.49,1.97,3.82,2.54,1.33.58,2.89.86,4.68.86,1.28,0,2.46-.21,3.53-.62,1.07-.42,1.93-.98,2.57-1.68.64-.7.96-1.52.96-2.45-.03-1.15-.37-2.1-1.01-2.83-.64-.74-1.58-1.36-2.81-1.87-1.23-.51-2.71-.93-4.44-1.25-1.6-.32-3.04-.74-4.32-1.25-1.28-.51-2.36-1.16-3.24-1.94-.88-.78-1.56-1.72-2.04-2.81-.48-1.09-.72-2.34-.72-3.74,0-1.95.51-3.64,1.54-5.06,1.02-1.42,2.42-2.52,4.18-3.29,1.76-.77,3.74-1.15,5.95-1.15,2.02,0,3.9.31,5.66.94,1.76.62,3.18,1.46,4.27,2.52.77.67,1.15,1.39,1.15,2.16,0,.61-.23,1.15-.7,1.63s-1,.72-1.61.72c-.45,0-.83-.13-1.15-.38-.51-.54-1.2-1.03-2.06-1.46-.86-.43-1.78-.79-2.76-1.08s-1.91-.43-2.81-.43c-1.44,0-2.67.2-3.7.6-1.02.4-1.81.94-2.35,1.63-.54.69-.82,1.51-.82,2.47,0,1.09.31,1.98.94,2.66.62.69,1.5,1.25,2.62,1.68,1.12.43,2.4.82,3.84,1.18,1.76.38,3.34.82,4.73,1.3,1.39.48,2.57,1.1,3.53,1.85.96.75,1.7,1.69,2.21,2.81.51,1.12.77,2.51.77,4.18,0,1.92-.54,3.6-1.63,5.04-1.09,1.44-2.52,2.56-4.3,3.36-1.78.8-3.75,1.2-5.93,1.2Z"/>
      <path class="cls-5" d="M163.35,215.16c1.73,0,3.26.18,4.61.55,1.34.37,2.39.88,3.14,1.54.75.66,1.13,1.42,1.13,2.28,0,.54-.16,1.05-.48,1.51-.32.46-.8.7-1.44.7-.48,0-.87-.07-1.18-.22-.3-.14-.58-.34-.82-.58-.24-.24-.55-.46-.94-.65-.35-.22-.88-.39-1.58-.5-.7-.11-1.31-.17-1.82-.17-1.7,0-3.16.38-4.39,1.15-1.23.77-2.19,1.8-2.88,3.1-.69,1.3-1.03,2.78-1.03,4.44s.34,3.15,1.03,4.46c.69,1.31,1.63,2.35,2.83,3.12s2.6,1.15,4.2,1.15c.93,0,1.7-.07,2.33-.22s1.14-.33,1.56-.55c.51-.29.94-.58,1.27-.89.34-.3.81-.46,1.42-.46.7,0,1.24.22,1.61.65.37.43.55.97.55,1.61,0,.7-.42,1.38-1.27,2.04-.85.66-1.98,1.19-3.38,1.61-1.41.42-2.98.62-4.7.62-2.46,0-4.62-.58-6.46-1.73-1.84-1.15-3.26-2.72-4.27-4.7-1.01-1.98-1.51-4.22-1.51-6.72s.53-4.78,1.58-6.74c1.06-1.97,2.52-3.53,4.39-4.68,1.87-1.15,4.04-1.73,6.5-1.73Z"/>
      <path class="cls-5" d="M201.27,228.36c0,2.56-.56,4.82-1.68,6.79-1.12,1.97-2.64,3.51-4.56,4.63-1.92,1.12-4.08,1.68-6.48,1.68s-4.56-.56-6.48-1.68c-1.92-1.12-3.45-2.66-4.58-4.63-1.14-1.97-1.7-4.23-1.7-6.79s.57-4.87,1.7-6.84c1.14-1.97,2.66-3.52,4.58-4.66,1.92-1.14,4.08-1.7,6.48-1.7s4.56.57,6.48,1.7c1.92,1.14,3.44,2.69,4.56,4.66,1.12,1.97,1.68,4.25,1.68,6.84ZM196.47,228.36c0-1.76-.35-3.29-1.06-4.58-.7-1.3-1.66-2.31-2.86-3.05-1.2-.74-2.54-1.1-4.01-1.1s-2.82.37-4.03,1.1c-1.22.74-2.18,1.75-2.88,3.05-.7,1.3-1.06,2.82-1.06,4.58s.35,3.2,1.06,4.51c.7,1.31,1.66,2.34,2.88,3.07,1.22.74,2.56,1.1,4.03,1.1s2.81-.37,4.01-1.1c1.2-.74,2.15-1.76,2.86-3.07.7-1.31,1.06-2.82,1.06-4.51Z"/>
      <path class="cls-5" d="M225.51,215.74c.67,0,1.24.23,1.7.7s.7,1.05.7,1.75v12.62c0,3.33-.93,5.93-2.78,7.8-1.86,1.87-4.48,2.81-7.87,2.81s-6.01-.94-7.85-2.81c-1.84-1.87-2.76-4.47-2.76-7.8v-12.62c0-.7.23-1.29.7-1.75s1.05-.7,1.75-.7,1.24.23,1.7.7.7,1.05.7,1.75v12.62c0,2.08.49,3.63,1.46,4.66.98,1.02,2.41,1.54,4.3,1.54s3.37-.51,4.34-1.54c.98-1.02,1.46-2.58,1.46-4.66v-12.62c0-.7.23-1.29.7-1.75s1.05-.7,1.75-.7Z"/>
      <path class="cls-5" d="M234.24,216.03h11.28c.64,0,1.18.22,1.61.65s.65.97.65,1.61-.22,1.17-.65,1.58c-.43.42-.97.62-1.61.62h-11.28c-.64,0-1.18-.22-1.61-.65s-.65-.97-.65-1.61.22-1.17.65-1.58c.43-.42.97-.62,1.61-.62ZM239.28,209.79c.7,0,1.28.23,1.73.7.45.46.67,1.05.67,1.75v22.27c0,.58.1,1.04.29,1.39.19.35.46.59.79.72.34.13.68.19,1.03.19s.66-.06.94-.19c.27-.13.6-.19.98-.19s.74.18,1.06.53c.32.35.48.83.48,1.44,0,.77-.42,1.39-1.25,1.87-.83.48-1.73.72-2.69.72-.54,0-1.18-.05-1.92-.14-.74-.1-1.45-.34-2.14-.72-.69-.38-1.26-1-1.73-1.85-.46-.85-.7-2.04-.7-3.58v-22.46c0-.7.24-1.29.72-1.75.48-.46,1.06-.7,1.73-.7Z"/>
    </g>
  </g>
</svg>